<mxfile host="app.diagrams.net" modified="2021-05-19T17:21:17.677Z" agent="5.0 (X11; Linux x86_64) AppleWebKit/537.36 (KHTML, like Gecko) Chrome/90.0.4430.212 Safari/537.36" etag="FamPrdUitARzSQfNzwy9" version="14.6.9" type="github">
  <diagram id="chHk8BN3ge6NkC3Ys8KO" name="Page-1">
    <mxGraphModel dx="1662" dy="833" grid="0" gridSize="10" guides="1" tooltips="1" connect="1" arrows="1" fold="1" page="1" pageScale="1" pageWidth="827" pageHeight="1169" math="0" shadow="0">
      <root>
        <mxCell id="0" />
        <mxCell id="1" parent="0" />
        <mxCell id="Eb0gkb911b8Whc8BE0Bj-5" style="edgeStyle=orthogonalEdgeStyle;rounded=0;orthogonalLoop=1;jettySize=auto;html=1;entryX=1;entryY=0.5;entryDx=0;entryDy=0;exitX=1;exitY=0.5;exitDx=0;exitDy=0;" parent="1" source="Eb0gkb911b8Whc8BE0Bj-1" target="Eb0gkb911b8Whc8BE0Bj-2" edge="1">
          <mxGeometry relative="1" as="geometry">
            <mxPoint x="589" y="467" as="sourcePoint" />
            <Array as="points">
              <mxPoint x="528" y="507" />
              <mxPoint x="729" y="507" />
              <mxPoint x="729" y="258" />
            </Array>
          </mxGeometry>
        </mxCell>
        <mxCell id="Eb0gkb911b8Whc8BE0Bj-9" value="Download Image" style="edgeLabel;html=1;align=center;verticalAlign=middle;resizable=0;points=[];" parent="Eb0gkb911b8Whc8BE0Bj-5" vertex="1" connectable="0">
          <mxGeometry x="0.4582" relative="1" as="geometry">
            <mxPoint as="offset" />
          </mxGeometry>
        </mxCell>
        <mxCell id="LISD75TSoag0vpvYwkyB-3" style="edgeStyle=orthogonalEdgeStyle;rounded=0;orthogonalLoop=1;jettySize=auto;html=1;exitX=0;exitY=0.5;exitDx=0;exitDy=0;entryX=0.5;entryY=0;entryDx=0;entryDy=0;" parent="1" source="Eb0gkb911b8Whc8BE0Bj-1" target="LISD75TSoag0vpvYwkyB-1" edge="1">
          <mxGeometry relative="1" as="geometry" />
        </mxCell>
        <mxCell id="LISD75TSoag0vpvYwkyB-4" value="Image process request" style="edgeLabel;html=1;align=center;verticalAlign=middle;resizable=0;points=[];" parent="LISD75TSoag0vpvYwkyB-3" vertex="1" connectable="0">
          <mxGeometry x="-0.3588" y="1" relative="1" as="geometry">
            <mxPoint y="-1" as="offset" />
          </mxGeometry>
        </mxCell>
        <mxCell id="Eb0gkb911b8Whc8BE0Bj-1" value="&lt;b style=&quot;font-size: 25px&quot;&gt;&lt;font face=&quot;Caveat&quot; data-font-src=&quot;https://fonts.googleapis.com/css?family=Caveat&quot;&gt;&lt;font color=&quot;#cc0000&quot;&gt;&lt;font style=&quot;font-size: 25px&quot;&gt;Vi&lt;/font&gt;s&lt;/font&gt;ion&lt;/font&gt;&lt;/b&gt;" style="ellipse;whiteSpace=wrap;html=1;aspect=fixed;" parent="1" vertex="1">
          <mxGeometry x="398" y="438" width="130" height="130" as="geometry" />
        </mxCell>
        <mxCell id="Eb0gkb911b8Whc8BE0Bj-6" style="edgeStyle=orthogonalEdgeStyle;rounded=0;orthogonalLoop=1;jettySize=auto;html=1;exitX=0;exitY=0.5;exitDx=0;exitDy=0;entryX=0.5;entryY=0;entryDx=0;entryDy=0;" parent="1" source="Eb0gkb911b8Whc8BE0Bj-2" target="Eb0gkb911b8Whc8BE0Bj-1" edge="1">
          <mxGeometry relative="1" as="geometry" />
        </mxCell>
        <mxCell id="Eb0gkb911b8Whc8BE0Bj-7" value="Upload Image" style="edgeLabel;html=1;align=center;verticalAlign=middle;resizable=0;points=[];" parent="Eb0gkb911b8Whc8BE0Bj-6" vertex="1" connectable="0">
          <mxGeometry x="0.337" y="1" relative="1" as="geometry">
            <mxPoint as="offset" />
          </mxGeometry>
        </mxCell>
        <mxCell id="Eb0gkb911b8Whc8BE0Bj-2" value="&lt;b&gt;User Interface&lt;/b&gt;" style="rounded=0;whiteSpace=wrap;html=1;fillColor=#dae8fc;strokeColor=#6c8ebf;" parent="1" vertex="1">
          <mxGeometry x="528" y="228" width="160" height="60" as="geometry" />
        </mxCell>
        <mxCell id="LISD75TSoag0vpvYwkyB-5" style="edgeStyle=orthogonalEdgeStyle;rounded=0;orthogonalLoop=1;jettySize=auto;html=1;entryX=0.5;entryY=1;entryDx=0;entryDy=0;" parent="1" source="LISD75TSoag0vpvYwkyB-1" target="Eb0gkb911b8Whc8BE0Bj-1" edge="1">
          <mxGeometry relative="1" as="geometry" />
        </mxCell>
        <mxCell id="LISD75TSoag0vpvYwkyB-6" value="Image process response" style="edgeLabel;html=1;align=center;verticalAlign=middle;resizable=0;points=[];" parent="LISD75TSoag0vpvYwkyB-5" vertex="1" connectable="0">
          <mxGeometry x="-0.3969" y="-3" relative="1" as="geometry">
            <mxPoint y="-3" as="offset" />
          </mxGeometry>
        </mxCell>
        <mxCell id="LISD75TSoag0vpvYwkyB-1" value="&lt;b&gt;Image Processing&lt;/b&gt;" style="rounded=0;whiteSpace=wrap;html=1;fillColor=#d5e8d4;strokeColor=#82b366;" parent="1" vertex="1">
          <mxGeometry x="68" y="648" width="120" height="60" as="geometry" />
        </mxCell>
      </root>
    </mxGraphModel>
  </diagram>
</mxfile>
